<?xml version="1.0" encoding="utf-8"?>
<!-- Generator: Adobe Illustrator 22.1.0, SVG Export Plug-In . SVG Version: 6.00 Build 0)  -->
<svg version="1.0" id="Ebene_1" xmlns="http://www.w3.org/2000/svg" xmlns:xlink="http://www.w3.org/1999/xlink" x="0px" y="0px"
	 viewBox="0 0 285.3 90.1" enable-background="new 0 0 285.3 90.1" xml:space="preserve">
<g>
	<path fill="#FF1559" d="M129.7,59.1c-0.1-0.1-0.2-0.3-0.2-0.5v-6.8c-1.1,1.4-2.6,2.1-4.6,2.1c-2,0-3.5-0.6-4.6-1.9s-1.7-3-1.8-5.1
		l0-1.1l0-1.1c0.1-2.1,0.7-3.8,1.7-5.1c1.1-1.3,2.6-1.9,4.7-1.9c2.1,0,3.7,0.7,4.8,2.2v-1.2c0-0.2,0.1-0.4,0.2-0.5
		c0.1-0.1,0.3-0.2,0.5-0.2h2.4c0.2,0,0.4,0.1,0.5,0.2s0.2,0.3,0.2,0.5v19.9c0,0.2-0.1,0.4-0.2,0.5s-0.3,0.2-0.5,0.2h-2.6
		C130,59.3,129.8,59.2,129.7,59.1z M128.5,49.6c0.6-0.7,0.9-1.5,0.9-2.5c0-0.3,0-0.6,0-1.2c0-0.5,0-0.9,0-1.1
		c-0.1-1.1-0.4-2-0.9-2.7s-1.4-1.1-2.5-1.1c-2.1,0-3.2,1.3-3.4,4c0,0.2,0,0.5,0,0.9c0,0.4,0,0.7,0,0.9c0.1,2.6,1.3,4,3.4,4
		C127.1,50.6,127.9,50.3,128.5,49.6z"/>
	<path fill="#FF1559" d="M138,52.1c-1.1-1.2-1.6-2.8-1.6-5v-8.4c0-0.2,0.1-0.4,0.2-0.5c0.1-0.1,0.3-0.2,0.5-0.2h2.7
		c0.2,0,0.4,0.1,0.5,0.2c0.1,0.1,0.2,0.3,0.2,0.5V47c0,2.5,1.1,3.7,3.2,3.7c1,0,1.9-0.3,2.5-1c0.6-0.7,0.9-1.6,0.9-2.7v-8.2
		c0-0.2,0.1-0.4,0.2-0.5c0.1-0.1,0.3-0.2,0.5-0.2h2.7c0.2,0,0.4,0.1,0.5,0.2s0.2,0.3,0.2,0.5v14.2c0,0.2-0.1,0.4-0.2,0.5
		c-0.1,0.1-0.3,0.2-0.5,0.2h-2.5c-0.2,0-0.4-0.1-0.5-0.2c-0.1-0.1-0.2-0.3-0.2-0.5v-1.2c-1.1,1.5-2.8,2.2-5,2.2
		C140.5,53.9,139.1,53.3,138,52.1z"/>
	<path fill="#FF1559" d="M154.5,53.4c-0.1-0.1-0.2-0.3-0.2-0.5V38.7c0-0.2,0.1-0.4,0.2-0.5s0.3-0.2,0.5-0.2h2.5
		c0.2,0,0.4,0.1,0.5,0.2c0.1,0.1,0.2,0.3,0.2,0.5v1.2c1.2-1.5,2.9-2.2,5-2.2c1.8,0,3.3,0.6,4.4,1.8s1.6,2.8,1.6,5v8.4
		c0,0.2-0.1,0.4-0.2,0.5c-0.1,0.1-0.3,0.2-0.5,0.2h-2.7c-0.2,0-0.4-0.1-0.5-0.2c-0.1-0.1-0.2-0.3-0.2-0.5v-8.2
		c0-1.2-0.3-2.1-0.9-2.7c-0.6-0.6-1.4-1-2.4-1c-1,0-1.8,0.3-2.5,1s-0.9,1.6-0.9,2.7v8.2c0,0.2-0.1,0.4-0.2,0.5
		c-0.1,0.1-0.3,0.2-0.5,0.2h-2.7C154.9,53.6,154.7,53.5,154.5,53.4z"/>
	<path fill="#FF1559" d="M173.5,35.2c-0.1-0.1-0.2-0.3-0.2-0.5v-2.2c0-0.2,0.1-0.4,0.2-0.5c0.1-0.1,0.3-0.2,0.5-0.2h2.8
		c0.2,0,0.4,0.1,0.5,0.2c0.1,0.1,0.2,0.3,0.2,0.5v2.2c0,0.2-0.1,0.4-0.2,0.5c-0.2,0.1-0.3,0.2-0.5,0.2H174
		C173.8,35.4,173.6,35.4,173.5,35.2z M173.6,53.4c-0.1-0.1-0.2-0.3-0.2-0.5V38.7c0-0.2,0.1-0.4,0.2-0.5s0.3-0.2,0.5-0.2h2.5
		c0.2,0,0.4,0.1,0.5,0.2c0.1,0.1,0.2,0.3,0.2,0.5v14.2c0,0.2-0.1,0.4-0.2,0.5c-0.1,0.1-0.3,0.2-0.5,0.2h-2.5
		C173.9,53.6,173.7,53.5,173.6,53.4z"/>
	<path fill="#FF1559" d="M184,52.2c-0.9-0.9-1.4-2.3-1.4-4.2v-6.8h-2.4c-0.2,0-0.4-0.1-0.5-0.2s-0.2-0.3-0.2-0.5v-1.8
		c0-0.2,0.1-0.4,0.2-0.5s0.3-0.2,0.5-0.2h2.4v-5c0-0.2,0.1-0.4,0.2-0.5c0.1-0.1,0.3-0.2,0.5-0.2h2.5c0.2,0,0.4,0.1,0.5,0.2
		s0.2,0.3,0.2,0.5v5h3.8c0.2,0,0.4,0.1,0.5,0.2c0.1,0.1,0.2,0.3,0.2,0.5v1.8c0,0.2-0.1,0.4-0.2,0.5c-0.1,0.1-0.3,0.2-0.5,0.2h-3.8
		v6.5c0,0.9,0.1,1.5,0.5,1.9c0.3,0.4,0.8,0.7,1.5,0.7h2.1c0.2,0,0.4,0.1,0.5,0.2c0.1,0.1,0.2,0.3,0.2,0.5v1.9c0,0.2-0.1,0.4-0.2,0.5
		c-0.1,0.1-0.3,0.2-0.5,0.2h-2.5C186.3,53.6,184.9,53.1,184,52.2z"/>
	<path fill="#FF1559" d="M192.9,46.1c-0.1-0.1-0.2-0.3-0.2-0.5v-2c0-0.2,0.1-0.4,0.2-0.5c0.1-0.1,0.3-0.2,0.5-0.2h9.2
		c0.2,0,0.4,0.1,0.5,0.2c0.1,0.1,0.2,0.3,0.2,0.5v2c0,0.2-0.1,0.4-0.2,0.5c-0.1,0.1-0.3,0.2-0.5,0.2h-9.2
		C193.3,46.3,193.1,46.3,192.9,46.1z"/>
	<path fill="#FF1559" d="M207.5,51.9c-1.1-1.3-1.7-3-1.8-5.2l0-1l0-1c0.1-2.1,0.7-3.8,1.8-5.1c1.1-1.3,2.6-2,4.7-2
		c1.9,0,3.5,0.7,4.6,2V33c0-0.2,0.1-0.4,0.2-0.5c0.1-0.1,0.3-0.2,0.5-0.2h2.6c0.2,0,0.4,0.1,0.5,0.2s0.2,0.3,0.2,0.5v19.9
		c0,0.2-0.1,0.4-0.2,0.5c-0.1,0.1-0.3,0.2-0.5,0.2h-2.4c-0.2,0-0.4-0.1-0.5-0.2c-0.1-0.1-0.2-0.3-0.2-0.5v-1.1
		c-1.1,1.4-2.7,2.1-4.8,2.1C210.1,53.9,208.6,53.2,207.5,51.9z M215.8,49.5c0.5-0.7,0.9-1.6,0.9-2.7c0-0.2,0-0.6,0-1.1
		c0-0.5,0-0.9,0-1.2c0-1-0.4-1.8-0.9-2.5c-0.6-0.7-1.4-1.1-2.5-1.1c-2.1,0-3.3,1.3-3.4,4l0,0.9l0,0.9c0.1,2.6,1.3,4,3.4,4
		C214.4,50.6,215.3,50.3,215.8,49.5z"/>
	<path fill="#FF1559" d="M225.9,52.1c-1.3-1.2-2-2.9-2.1-5l0-1.3l0-1.3c0.1-2.1,0.8-3.8,2.1-5c1.3-1.2,3.1-1.8,5.4-1.8
		c2.3,0,4.1,0.6,5.4,1.8c1.3,1.2,2,2.9,2.1,5c0,0.2,0,0.7,0,1.3c0,0.6,0,1.1,0,1.3c-0.1,2.1-0.8,3.8-2.1,5c-1.3,1.2-3.1,1.8-5.4,1.8
		C229,53.9,227.2,53.3,225.9,52.1z M233.9,49.9c0.6-0.7,0.9-1.6,0.9-2.9c0-0.2,0-0.6,0-1.2s0-1,0-1.2c0-1.3-0.4-2.3-0.9-2.9
		s-1.4-1-2.4-1c-1.1,0-1.9,0.3-2.5,1s-0.9,1.6-0.9,2.9l0,1.2l0,1.2c0,1.3,0.3,2.2,0.9,2.9s1.4,1,2.5,1
		C232.5,50.9,233.3,50.5,233.9,49.9z"/>
	<path fill="#FF1559" d="M242.2,53.4c-0.1-0.1-0.2-0.3-0.2-0.5V38.7c0-0.2,0.1-0.4,0.2-0.5s0.3-0.2,0.5-0.2h2.4
		c0.2,0,0.4,0.1,0.5,0.2s0.2,0.3,0.2,0.5v1c1.1-1.4,2.5-2,4.3-2c2.2,0,3.8,0.9,4.7,2.7c0.5-0.8,1.2-1.4,2-1.9
		c0.9-0.5,1.8-0.7,2.8-0.7c1.6,0,3,0.6,4,1.7c1,1.1,1.6,2.8,1.6,4.9v8.6c0,0.2-0.1,0.4-0.2,0.5c-0.1,0.1-0.3,0.2-0.5,0.2H262
		c-0.2,0-0.4-0.1-0.5-0.2c-0.1-0.1-0.2-0.3-0.2-0.5v-8.4c0-1.3-0.3-2.2-0.8-2.7c-0.5-0.6-1.2-0.8-2.1-0.8c-0.8,0-1.4,0.3-2,0.9
		c-0.6,0.6-0.8,1.5-0.8,2.7v8.4c0,0.2-0.1,0.4-0.2,0.5c-0.1,0.1-0.3,0.2-0.5,0.2h-2.5c-0.2,0-0.4-0.1-0.5-0.2
		c-0.1-0.1-0.2-0.3-0.2-0.5v-8.4c0-1.2-0.3-2.1-0.8-2.7s-1.2-0.9-2.1-0.9c-0.8,0-1.4,0.3-2,0.9c-0.6,0.6-0.8,1.5-0.8,2.7v8.4
		c0,0.2-0.1,0.4-0.2,0.5c-0.1,0.1-0.3,0.2-0.5,0.2h-2.5C242.5,53.6,242.3,53.5,242.2,53.4z"/>
</g>
<g>
	<path fill="#FF1559" d="M99.8,70.1h-70c-5.5,0-10-4.5-10-10v-30c0-5.5,4.5-10,10-10h70c5.5,0,10,4.5,10,10v30
		C109.8,65.6,105.3,70.1,99.8,70.1z"/>
	<g>
		<g>
			<path fill="#FFFFFF" d="M39.3,54l-9.7-6.7c-0.3-0.2-0.5-0.4-0.6-0.6c-0.1-0.2-0.2-0.4-0.2-0.7v-0.7c0-0.3,0.1-0.5,0.2-0.7
				c0.1-0.2,0.3-0.4,0.6-0.6l9.7-6.6c0.2-0.2,0.4-0.3,0.6-0.3s0.3,0.1,0.4,0.2c0.1,0.1,0.2,0.3,0.2,0.4V40c0,0.2-0.1,0.4-0.2,0.6
				c-0.1,0.1-0.3,0.3-0.5,0.5l-7,4.7l7,4.7c0.2,0.2,0.4,0.3,0.5,0.5c0.1,0.1,0.2,0.3,0.2,0.6v2.2c0,0.2-0.1,0.3-0.2,0.4
				c-0.1,0.1-0.2,0.2-0.4,0.2C39.7,54.2,39.5,54.1,39.3,54z"/>
			<path fill="#FFFFFF" d="M59.4,56.5c-0.2-0.1-0.3-0.3-0.4-0.5l-1.1-1.4c-0.9,0.3-1.9,0.5-3,0.5c-2.6,0-4.6-0.7-6.1-2
				c-1.5-1.3-2.2-3.3-2.3-5.9c0-0.6,0-1.4,0-2.4c0-1.1,0-1.9,0-2.5c0.1-2.5,0.9-4.5,2.4-5.9s3.5-2,6-2c2.5,0,4.6,0.7,6.1,2
				c1.5,1.4,2.3,3.3,2.4,5.9c0,1.1,0.1,1.9,0.1,2.5c0,0.5,0,1.3-0.1,2.4c-0.1,2.5-0.8,4.4-2.1,5.7l2,2.9c0.1,0.1,0.1,0.2,0.1,0.3
				v0.1c0,0.2-0.1,0.3-0.2,0.4c-0.1,0.1-0.2,0.2-0.4,0.2H60C59.7,56.7,59.5,56.6,59.4,56.5z M57.9,50.6c0.8-0.8,1.2-1.9,1.2-3.5
				c0-1.1,0.1-1.9,0.1-2.3c0-0.4,0-1.2-0.1-2.3c0-1.6-0.4-2.7-1.2-3.5s-1.8-1.2-3-1.2s-2.3,0.4-3,1.2s-1.2,1.9-1.2,3.5
				c0,0.6,0,1.3,0,2.3c0,1,0,1.8,0,2.3c0.1,1.6,0.5,2.8,1.2,3.5c0.7,0.8,1.8,1.1,3,1.1C56.1,51.7,57.1,51.4,57.9,50.6z"/>
			<path fill="#FFFFFF" d="M68.5,53.1c-1.4-1.3-2.2-3.3-2.2-6V35.4c0-0.2,0.1-0.4,0.2-0.5c0.1-0.1,0.3-0.2,0.5-0.2h2.6
				c0.2,0,0.4,0.1,0.5,0.2c0.1,0.1,0.2,0.3,0.2,0.5v11.7c0,1.5,0.4,2.7,1.1,3.4c0.7,0.8,1.7,1.1,3.1,1.1c1.3,0,2.3-0.4,3.1-1.1
				c0.7-0.8,1.1-1.9,1.1-3.4V35.4c0-0.2,0.1-0.4,0.2-0.5c0.1-0.1,0.3-0.2,0.5-0.2H82c0.2,0,0.4,0.1,0.5,0.2c0.1,0.1,0.2,0.3,0.2,0.5
				v11.7c0,2.7-0.7,4.7-2.1,6s-3.4,2-6,2C71.9,55.1,69.9,54.4,68.5,53.1z"/>
			<path fill="#FFFFFF" d="M89.3,54c-0.1-0.1-0.2-0.2-0.2-0.4v-2.2c0-0.2,0.1-0.4,0.2-0.6c0.1-0.1,0.3-0.3,0.5-0.5l7-4.7l-7-4.7
				c-0.2-0.2-0.4-0.3-0.5-0.5c-0.1-0.1-0.2-0.3-0.2-0.6v-2.2c0-0.2,0.1-0.3,0.2-0.4c0.1-0.1,0.2-0.2,0.4-0.2c0.2,0,0.4,0.1,0.6,0.3
				l9.7,6.6c0.3,0.2,0.5,0.4,0.6,0.6c0.1,0.2,0.2,0.4,0.2,0.7V46c0,0.3-0.1,0.5-0.2,0.7c-0.1,0.2-0.3,0.4-0.6,0.6L90.3,54
				c-0.2,0.2-0.4,0.2-0.6,0.2C89.6,54.2,89.4,54.2,89.3,54z"/>
		</g>
	</g>
</g>
</svg>
