<svg focusable="false" aria-hidden="true" width="139.35" height="20" viewBox="0 0 167 25" xmlns="http://www.w3.org/2000/svg"><path fill-rule="evenodd" clip-rule="evenodd" d="M24.0593 24.5H19.775V0.5H24.0593V24.5ZM0 24.5V0.5H4.04224L12.6634 13.7848L10.441 17.1929L4.2843 7.69072V24.5H0ZM31.7476 13.6983C33.8068 13.6983 35.3506 14.3056 36.6376 15.2962V13.7305C36.6376 11.6533 35.737 10.2789 32.8414 10.2789C31.3294 10.2789 29.8498 10.7903 28.5952 11.8131L26.4076 9.63998C28.3378 8.00988 30.7504 7.17902 33.292 7.17902C38.7928 7.17902 40.4338 10.1192 40.4338 14.3694V24.1162H36.6376V22.7423C35.4472 23.8927 33.6778 24.5 31.7476 24.5C28.1122 24.5 25.4746 22.2631 25.4746 19.0989C25.4746 15.9352 28.1122 13.6983 31.7476 13.6983ZM29.335 19.0989C29.335 20.6652 30.6538 21.4323 32.713 21.4323C34.1602 21.4323 35.608 20.9525 36.6376 19.9619V18.2364C35.5762 17.2774 34.225 16.766 32.713 16.766C30.6538 16.766 29.335 17.5331 29.335 19.0989ZM47.8132 24.1162H44.017V7.56227H47.8132V24.1162ZM45.9153 0.5C47.2342 0.5 48.2637 1.49059 48.2637 2.80122C48.2637 4.11129 47.2342 5.10188 45.9153 5.10188C44.596 5.10188 43.5669 4.11129 43.5669 2.80122C43.5669 1.49059 44.596 0.5 45.9153 0.5ZM63.0361 13.9218C63.0361 11.589 62.0065 10.2468 59.8189 10.2468C57.9534 10.2468 56.2482 11.3333 55.3476 12.4842V24.1162H51.5514V7.56284H55.3476V9.48024C56.634 8.20179 58.5324 7.17902 60.945 7.17902C64.4515 7.17902 66.8323 9.35212 66.8323 13.3788V24.1162H63.0361V13.9218ZM78.0373 10.2468C76.5895 10.2468 75.1094 11.046 74.2087 12.1325V24.1162H70.4125V7.56284H74.2087V9.22455C75.56 8.00988 77.297 7.17902 79.292 7.17902C81.4472 7.17902 83.0234 8.04205 83.8598 9.63998C85.3076 8.29774 87.1094 7.17902 89.6828 7.17902C93.1574 7.17902 95.0876 9.32051 95.0876 13.2829V24.1162H91.2914V13.8902C91.2914 11.5574 90.5516 10.2468 88.4606 10.2468C87.0452 10.2468 85.4684 11.1098 84.6002 12.2923C84.6644 12.7715 84.6644 13.2507 84.6644 13.7621V24.1162H80.8682V13.8902C80.8682 11.5574 80.1926 10.2468 78.0373 10.2468ZM103.931 13.6983C105.99 13.6983 107.534 14.3056 108.821 15.2962V13.7305C108.821 11.6533 107.92 10.2789 105.024 10.2789C103.512 10.2789 102.033 10.7903 100.778 11.8131L98.5906 9.63998C100.521 8.00988 102.933 7.17902 105.475 7.17902C110.976 7.17902 112.617 10.1192 112.617 14.3694V24.1162H108.821V22.7423C107.63 23.8927 105.861 24.5 103.931 24.5C100.296 24.5 97.6576 22.2631 97.6576 19.0989C97.6576 15.9352 100.296 13.6983 103.931 13.6983ZM101.518 19.0989C101.518 20.6652 102.837 21.4323 104.896 21.4323C106.344 21.4323 107.791 20.9525 108.821 19.9619V18.2364C107.759 17.2774 106.408 16.766 104.896 16.766C102.837 16.766 101.518 17.5331 101.518 19.0989ZM124.989 24.404C124.378 24.4678 123.638 24.5 122.962 24.5C118.941 24.5 117.204 22.7423 117.204 18.5881V10.5668H114.277V7.56284H117.204V2.60931H121V7.56284H124.989V10.5668H121V18.7156C121 20.5692 121.611 21.4323 123.606 21.4323C124.088 21.4323 124.603 21.4323 124.989 21.4001V24.404ZM137.082 24.404C136.471 24.4678 135.731 24.5 135.055 24.5C131.034 24.5 129.297 22.7423 129.297 18.5881V10.5668H126.369V7.56284H129.297V2.60931H133.093V7.56284H137.082V10.5668H133.093V18.7156C133.093 20.5692 133.704 21.4323 135.699 21.4323C136.182 21.4323 136.696 21.4323 137.082 21.4001V24.404ZM146.312 7.17902C151.105 7.17902 154.386 10.7903 154.386 15.9352C154.386 16.2868 154.386 16.862 154.322 17.2136H142.033C142.387 19.7384 144.253 21.4323 146.826 21.4323C148.499 21.4323 149.883 20.6652 150.977 19.323L153.647 21.2082C152.07 23.3175 149.69 24.5 146.859 24.5C141.615 24.5 138.173 20.9209 138.173 15.8398C138.173 10.8225 141.422 7.17902 146.312 7.17902ZM150.558 14.3373C150.365 11.8131 148.596 10.2468 146.312 10.2468C143.931 10.2468 142.355 11.7809 142.001 14.3373H150.558ZM165.939 7.17902C166.293 7.17902 166.679 7.21119 167 7.2428V10.3749C166.679 10.3427 166.132 10.3111 165.649 10.3111C163.687 10.3111 161.885 11.3017 160.92 12.8037V24.1162H157.124V7.56284H160.92V9.57563C162.046 8.07366 163.719 7.17902 165.939 7.17902Z" fill="#6200ee"></path></svg>